# xmcd
#
# Track frame offsets:
#	150
#	13697
#	27052
#	38430
#	50985
#	65050
#	77307
#	91837
#	103237
#	117040
#	128402
#	140595
#	151377
#	162082
#	175470
#	188847
#	198810
#	213830
#	225990
#	238862
#	251040
#	265475
#	277445
#	289742
#	300725
#	312945
#	325080
#	337770
#
# Disc length: 4674 seconds
#
# Revision: 3
# Processed by: cddbd v1.5.2PL0 Copyright (c) Steve Scherf et al.
# Submitted via: audiograbber 1.83.01
#
DISCID=8512401c
DTITLE=T-Bone Walker - The Hustle Is On
DYEAR=1975
DGENRE=Blues
TTITLE0=I Got The Blues
TTITLE1=Love Is Just A Gamble
TTITLE2=Strollin' With Bones
TTITLE3=Life Is Too Short
TTITLE4=Street Walking Woman
TTITLE5=Rail Road Station Blues
TTITLE6=Cold Cold Feeling
TTITLE7=Everytime
TTITLE8=Get These Blues Off Me
TTITLE9=The Hustle Is On
TTITLE10=I Get So Weary
TTITLE11=News For You Baby
TTITLE12=The Sun Went Down
TTITLE13=High Society
TTITLE14=You Don't Love Me
TTITLE15=Party Girl
TTITLE16=I Got The Blues Again
TTITLE17=Tell Me What The Reason
TTITLE18=Blues Is A Woman
TTITLE19=You Don't Understand
TTITLE20=Through With Women
TTITLE21=Evil Hearted Woman
TTITLE22=Alimony Blues
TTITLE23=I'm About To Lose My Mind
TTITLE24=Baby Broke My Heart
TTITLE25=Got No Use For You
TTITLE26=Bye Bye Baby
TTITLE27=Blue Mood
EXTD=ID3G: 0
EXTT0=
EXTT1=
EXTT2=
EXTT3=
EXTT4=
EXTT5=
EXTT6=
EXTT7=
EXTT8=
EXTT9=
EXTT10=
EXTT11=
EXTT12=
EXTT13=
EXTT14=
EXTT15=
EXTT16=
EXTT17=
EXTT18=
EXTT19=
EXTT20=
EXTT21=
EXTT22=
EXTT23=
EXTT24=
EXTT25=
EXTT26=
EXTT27=
PLAYORDER=
